<svg xmlns="http://www.w3.org/2000/svg" viewBox="0 0 128 128" role="img" aria-labelledby="title desc">
  <title id="title">LBS AI Lab sparkle favicon</title>
  <desc id="desc">A simple sparkle mark in London Business School blue.</desc>
  <path
    fill="#14175d"
    d="M64 9c4.9 25.4 17.4 43.6 43.9 55C81.4 75.4 68.9 93.6 64 119 59.1 93.6 46.6 75.4 20.1 64 46.6 52.6 59.1 34.4 64 9Z"
  />
  <path
    fill="#14175d"
    d="M27 16c1.9 9.5 6.6 16.3 16.5 20.5C33.6 40.7 28.9 47.5 27 57c-1.9-9.5-6.6-16.3-16.5-20.5C20.4 32.3 25.1 25.5 27 16Z"
  />
  <path
    fill="#14175d"
    d="M102 17c1.5 7.6 5.2 13 13.1 16.5C107.2 37 103.5 42.4 102 50c-1.5-7.6-5.2-13-13.1-16.5C96.8 30 100.5 24.6 102 17Z"
  />
</svg>
