<svg version="1.1" id="Layer_1" xmlns="http://www.w3.org/2000/svg" xmlns:xlink="http://www.w3.org/1999/xlink" x="0px" y="0px" viewBox="0 0 56.7 56.7" style="enable-background:new 0 0 56.7 56.7;" xml:space="preserve">

    <rect x="5.7" y="46.8" fill="#C8102E" width="51" height="1.1"></rect>

    <g>
        <path fill="#FFFFFF" d="M9.9,22.3v-0.2c0.7-0.3,1.1-0.9,1.1-1.7C11,18.9,10,18,8.1,18H5.7v8.7h2.9c1.8,0,2.9-0.9,2.9-2.5
							C11.5,23.6,11.3,22.6,9.9,22.3z M7,19.1h1.2c1.1,0,1.7,0.4,1.7,1.3c0,0.9-0.6,1.3-1.7,1.3H7V19.1z M8.6,25.6H7v-2.8h1.7
							c1.1,0,1.7,0.5,1.7,1.4S9.7,25.6,8.6,25.6z"></path>

        <polygon fill="#FFFFFF" points="10.5,13.2 7,13.2 7,5.7 5.7,5.7 5.7,14.4 10.5,14.4 	"></polygon>

        <path fill="#FFFFFF" d="M16.7,11.2c0-1.9-1.2-3.3-2.9-3.3s-2.9,1.3-2.9,3.3s1.2,3.3,2.9,3.3S16.7,13.2,16.7,11.2z M12.1,11.2
							c0-1.3,0.7-2.2,1.7-2.2s1.7,0.9,1.7,2.2s-0.7,2.2-1.7,2.2S12.1,12.6,12.1,11.2z"></path>

        <path fill="#FFFFFF" d="M21.5,32.6c-0.7,0-1.3,0.3-1.9,0.8v-3.5l-1.2,0.6V39h1.2l0-4.3c0.3-0.5,1-1,1.7-1c0.9,0,1,0.5,1,1.4V39h1.2
							v-4.1C23.6,33.4,22.9,32.6,21.5,32.6z"></path>

        <path fill="#FFFFFF" d="M19.2,10.1c0.3-0.5,1-1,1.7-1c0.9,0,1,0.5,1,1.4v3.9h1.2v-4.1c0-1.5-0.7-2.3-2.1-2.3c-0.7,0-1.4,0.3-2,0.9h0
							V8.1h-1v6.3h1.2V10.1z"></path>

        <path fill="#FFFFFF" d="M16.6,24.7c-0.3,0.5-1,1-1.7,1c-0.9,0-1-0.5-1-1.4v-3.9h-1.2v4.1c0,1.5,0.7,2.3,2.1,2.3c0.7,0,1.4-0.3,2-0.9h0
							v0.8h1v-6.3h-1.2L16.6,24.7z"></path>

        <path fill="#FFFFFF" d="M42.3,10.4v3.9h1.2v-4.1c0-1.5-0.7-2.3-2.1-2.3c-0.7,0-1.4,0.3-2,0.9h0V8.1h-1v6.3h1.2v-4.3c0.3-0.5,1-1,1.7-1
							C42.1,9.1,42.3,9.6,42.3,10.4z"></path>

        <path fill="#FFFFFF" d="M31.7,22.8v3.9H33v-4.1c0-1.5-0.7-2.3-2.1-2.3c-0.7,0-1.4,0.3-2,0.9h0v-0.8h-1v6.3H29v-4.3c0.3-0.5,1-1,1.7-1
							C31.6,21.4,31.7,21.9,31.7,22.8z"></path>

        <path fill="#FFFFFF" d="M27.1,14.5c0.8,0,1.5-0.4,1.8-0.9h0v0.7h1V5.3l-1.2,0.6v2.8c-0.3-0.4-0.9-0.7-1.7-0.7c-1.4,0-2.8,1-2.8,3.3
							C24.3,12.9,25.2,14.5,27.1,14.5z M27.3,9c0.6,0,1.2,0.4,1.5,1v2.5c-0.3,0.6-0.9,1-1.5,1c-1.1,0-1.8-0.9-1.8-2.2S26.2,9,27.3,9z"></path>

        <path fill="#FFFFFF" d="M34.1,14.5c1.7,0,2.9-1.3,2.9-3.3s-1.2-3.3-2.9-3.3c-1.7,0-2.9,1.3-2.9,3.3S32.4,14.5,34.1,14.5z M34.1,9
							c1,0,1.7,0.9,1.7,2.2s-0.7,2.2-1.7,2.2s-1.7-0.9-1.7-2.2S33.1,9,34.1,9z"></path>

        <path fill="#FFFFFF" d="M27.7,32.6c-1.7,0-2.9,1.3-2.9,3.3s1.2,3.3,2.9,3.3c1.7,0,2.9-1.3,2.9-3.3S29.4,32.6,27.7,32.6z M27.7,38.1
							c-1,0-1.7-0.9-1.7-2.2s0.7-2.2,1.7-2.2c1,0,1.7,0.9,1.7,2.2S28.7,38.1,27.7,38.1z"></path>

        <path fill="#FFFFFF" d="M34.3,32.6c-1.7,0-2.9,1.3-2.9,3.3s1.2,3.3,2.9,3.3c1.7,0,2.9-1.3,2.9-3.3S36,32.6,34.3,32.6z M34.3,38.1
							c-1,0-1.7-0.9-1.7-2.2s0.7-2.2,1.7-2.2c1,0,1.7,0.9,1.7,2.2S35.3,38.1,34.3,38.1z"></path>

        <polygon fill="#FFFFFF" points="38.5,39 39.7,39 39.7,29.9 38.5,30.5 	"></polygon>

        <rect x="25" y="20.4" fill="#FFFFFF" width="1.2" height="6.3"></rect>

        <polygon fill="#FFFFFF" points="26.2,18 25,18 25,19.4 26.2,19.4 	"></polygon>

        <path fill="#FFFFFF" d="M9.6,34.4l-1.3-0.5C7.7,33.6,7,33.3,7,32.5c0-0.7,0.5-1.2,1.5-1.2c0.7,0,1.3,0.3,1.9,0.9l0.7-0.9
							c-0.7-0.7-1.6-1.1-2.6-1.1c-1.6,0-2.7,1-2.7,2.4c0,1.4,1.1,2.1,1.7,2.3l1.3,0.5c0.8,0.3,1.3,0.6,1.3,1.4c0,0.8-0.6,1.3-1.7,1.3
							c-0.8,0-1.7-0.5-2.3-1.1l-0.7,0.9c0.7,0.7,2,1.3,3,1.3c1.7,0,2.9-1,2.9-2.4C11.3,35.4,10.4,34.8,9.6,34.4z"></path>

        <path fill="#FFFFFF" d="M15.3,38c-1.1,0-1.8-0.8-1.8-2.2c0-1.3,0.7-2.2,1.9-2.2c0.5,0,0.9,0.2,1.2,0.5l0.6-0.9
							c-0.6-0.5-1.2-0.8-1.9-0.8c-0.8,0-1.6,0.3-2.1,0.9c-0.6,0.6-0.9,1.5-0.9,2.5c0,2,1.2,3.3,3,3.3c0.7,0,1.5-0.3,2.1-0.8l-0.5-0.9
							C16.4,37.8,15.9,38,15.3,38z"></path>

        <path fill="#FFFFFF" d="M43.2,23.1L42.9,23c-0.7-0.2-1.2-0.5-1.2-1c0-0.5,0.4-0.8,1.1-0.8c0.5,0,1,0.3,1.4,0.6l0.6-0.9
							c-0.3-0.3-1.1-0.8-2-0.8c-1.3,0-2.2,0.7-2.2,1.8c0,1.2,1.1,1.6,1.9,1.9l0.1,0.1c0.6,0.2,1.2,0.4,1.2,1c0,0.5-0.4,0.9-1.1,0.9
							c-0.7,0-1.4-0.4-1.8-0.8L40.2,26c0.7,0.5,1.6,0.9,2.4,0.9c1.6,0,2.3-1,2.3-1.9C44.9,23.7,44,23.4,43.2,23.1z"></path>

        <path fill="#FFFFFF" d="M21.9,23.1L21.7,23c-0.7-0.2-1.2-0.5-1.2-1c0-0.5,0.4-0.8,1.1-0.8c0.5,0,1,0.3,1.4,0.6l0.6-0.9
							c-0.3-0.3-1.1-0.8-2-0.8c-1.3,0-2.2,0.7-2.2,1.8c0,1.2,1.1,1.6,1.9,1.9l0.1,0.1c0.6,0.2,1.2,0.4,1.2,1c0,0.5-0.4,0.9-1.1,0.9
							c-0.7,0-1.4-0.4-1.8-0.8L18.9,26c0.7,0.5,1.6,0.9,2.4,0.9c1.6,0,2.3-1,2.3-1.9C23.7,23.8,22.7,23.4,21.9,23.1z"></path>

        <path fill="#FFFFFF" d="M48.6,23.1L48.3,23c-0.7-0.2-1.2-0.5-1.2-1c0-0.5,0.4-0.8,1.1-0.8c0.5,0,1,0.3,1.4,0.6l0.6-0.9
							c-0.3-0.3-1.1-0.8-2-0.8c-1.3,0-2.2,0.7-2.2,1.8c0,1.2,1.1,1.6,1.9,1.9l0.1,0.1c0.6,0.2,1.2,0.4,1.2,1c0,0.5-0.4,0.9-1.1,0.9
							c-0.7,0-1.4-0.4-1.8-0.8L45.6,26c0.7,0.5,1.6,0.9,2.4,0.9c1.6,0,2.3-1,2.3-1.9C50.3,23.7,49.4,23.4,48.6,23.1z"></path>

        <path fill="#FFFFFF" d="M38.7,20.9c-0.4-0.5-1-0.7-1.8-0.7c-1.4,0-2.9,1.2-2.9,3.3c0,2,1.2,3.3,3,3.3c0.7,0,1.4-0.2,2.1-0.7l0.1,0
							l-0.4-0.9l-0.1,0c-0.5,0.3-1,0.5-1.5,0.5c-1.1,0-1.9-0.7-2-1.9h4.2C39.6,22.6,39.3,21.6,38.7,20.9z M35.3,22.9
							c0.1-1,0.8-1.7,1.7-1.7c0.9,0,1.4,0.8,1.4,1.7H35.3z"></path>
    </g>
</svg>